<svg xmlns="http://www.w3.org/2000/svg" class="sc-lbtibP gjnBLb" viewBox="-75 -75 2550 1170"><path fill="#FFF" d="M2064 1020H336C151.2 1020 0 868.8 0 684V336C0 151.2 151.2 0 336 0h1728c184.8 0 336 151.2 336 336v348c0 184.8-151.2 336-336 336z"/><path fill="url(#a)" d="M2064 1020H336C151.2 1020 0 868.8 0 684V336C0 151.2 151.2 0 336 0h1728c184.8 0 336 151.2 336 336v348c0 184.8-151.2 336-336 336z" class="sc-jOltFJ dIfviG"/><defs><pattern id="a" width="1" height="1" patternContentUnits="userSpaceOnUse"><image width="2600" height="1220" x="-100" y="-100" href="https://wsr.nhle.com/static/js/../images/f7597e93d3f2a4b23d41.png"/></pattern></defs><path d="M1194 0h12v1020h-12z" class="sc-iSfqCo fAhVna"/><path fill="#36C" d="M1200 332c24.03 0 47.34 4.71 69.29 13.99 21.2 8.97 40.23 21.8 56.58 38.15 16.35 16.35 29.18 35.38 38.15 56.58 9.28 21.94 13.99 45.25 13.99 69.29s-4.71 47.34-13.99 69.28c-8.97 21.2-21.8 40.23-38.15 56.58s-35.38 29.18-56.58 38.15c-21.94 9.28-45.25 13.99-69.29 13.99s-47.34-4.71-69.29-13.99c-21.2-8.97-40.23-21.8-56.58-38.15s-29.18-35.38-38.15-56.58c-9.28-21.94-13.99-45.25-13.99-69.28s4.71-47.34 13.99-69.29c8.97-21.2 21.8-40.23 38.15-56.58 16.35-16.35 35.38-29.18 56.58-38.15 21.95-9.28 45.26-13.99 69.29-13.99m0-2c-99.41 0-180 80.59-180 180s80.59 180 180 180 180-80.59 180-180-80.59-180-180-180zM888 0h12v1020h-12zM1500 0h12v1020h-12z"/><path fill="none" d="M1200 962c-31.98 0-58 26.02-58 58h116c0-31.98-26.02-58-58-58z"/><path fill="#C33" d="M1200 962c31.98 0 58 26.02 58 58h2c0-33.14-26.86-60-60-60s-60 26.86-60 60h2c0-31.98 26.02-58 58-58z"/><g fill="#FFF"><path d="M1196 0h8v8h-8zM1204 983.78h-8v-16.13h8v16.13zm0-44.36h-8v-16.13h8v16.13zm0-44.35h-8v-16.13h8v16.13zm0-44.36h-8v-16.13h8v16.13zm0-44.35h-8v-16.13h8v16.13zm0-44.35h-8v-16.13h8v16.13zm0-44.35h-8v-16.13h8v16.13zm0-44.36h-8v-16.13h8v16.13zm0-44.35h-8v-16.13h8v16.13zm0-44.36h-8v-16.13h8v16.13zm0-44.35h-8v-16.13h8v16.13zm0-44.35h-8v-16.13h8v16.13zm0-44.36h-8V435.4h8v16.13zm0-44.35h-8v-16.13h8v16.13zm0-44.35h-8V346.7h8v16.13zm0-44.36h-8v-16.13h8v16.13zm0-44.35h-8v-16.13h8v16.13zm0-44.35h-8v-16.13h8v16.13zm0-44.36h-8v-16.13h8v16.13zm0-44.35h-8v-16.13h8v16.13zm0-44.35h-8V80.58h8v16.13zm0-44.36h-8V36.23h8v16.12zM1196 1012h8v8h-8z"/></g><circle cx="372" cy="246" r="180" fill="none"/><path fill="#C33" d="M372 68c24.03 0 47.34 4.71 69.29 13.99 21.2 8.97 40.23 21.8 56.58 38.15s29.18 35.38 38.15 56.58C545.29 198.66 550 221.97 550 246s-4.71 47.34-13.99 69.29c-8.97 21.2-21.8 40.23-38.15 56.58-16.35 16.35-35.38 29.18-56.58 38.15C419.34 419.29 396.03 424 372 424s-47.34-4.71-69.29-13.99c-21.2-8.97-40.23-21.8-56.58-38.15-16.35-16.35-29.18-35.38-38.15-56.58C198.71 293.34 194 270.03 194 246s4.71-47.34 13.99-69.29c8.97-21.2 21.8-40.23 38.15-56.58s35.38-29.18 56.58-38.15C324.66 72.71 347.97 68 372 68m0-2c-99.41 0-180 80.59-180 180s80.59 180 180 180 180-80.59 180-180S471.41 66 372 66z"/><path fill="#C33" d="M372 236c5.51 0 10 4.49 10 10s-4.49 10-10 10-10-4.49-10-10 4.49-10 10-10m0-2c-6.63 0-12 5.37-12 12s5.37 12 12 12 12-5.37 12-12-5.37-12-12-12z"/><g fill="#C33"><path d="M346 237v-36h2v36z"/><path d="M300 235h48v2h-48zM348 255v36h-2v-36z"/><path d="M300 255h48v2h-48z"/></g><g fill="#C33"><path d="M396 237v-36h2v36z"/><path d="M396 235h48v2h-48zM398 255v36h-2v-36z"/><path d="M396 255h48v2h-48z"/></g><path fill="#C33" d="m339 69-2 1V45h2zM407 70l-2-1V45h2zM339 423l-2-1v25h2zM407 422l-2 1v24h2z"/><path fill="none" d="M379 236.27v19.47c3.02-2.18 5-5.72 5-9.73 0-4.02-1.98-7.56-5-9.74zM372 234c-2.45 0-4.73.74-6.63 2h13.26c-1.9-1.26-4.18-2-6.63-2zM372 258c2.45 0 4.73-.74 6.63-2h-13.26c1.9 1.26 4.18 2 6.63 2zM360 246c0 4.01 1.98 7.55 5 9.73v-19.47c-3.02 2.19-5 5.73-5 9.74z"/><path fill="#C33" d="M378.63 236h-13.26c-.13.08-.25 1.18-1.37 1.27v17.47c1.12.09 1.24 1.18 1.37 1.27h13.26c.13-.08.25-1.18 1.37-1.27v-17.47c-1.12-.09-1.24-1.19-1.37-1.27z"/><circle cx="372" cy="774" r="180" fill="none"/><path fill="#C33" d="M552 774c0-87.43-62.34-160.3-145-176.59V573h-2v24l.09.05c-10.72-2-21.78-3.05-33.09-3.05s-22.37 1.05-33.09 3.05l.09-.05v-24h-2v24.41C254.34 613.7 192 686.57 192 774s62.34 160.3 145 176.59V975h2v-24l-.09-.05C349.64 952.94 360.7 954 372 954s22.37-1.05 33.09-3.05l-.09.05v24h2v-24.41C489.66 934.3 552 861.43 552 774zM441.29 938.01C419.34 947.29 396.03 952 372 952s-47.34-4.71-69.28-13.99c-21.2-8.97-40.23-21.8-56.58-38.15s-29.18-35.38-38.15-56.58C198.71 821.34 194 798.03 194 774s4.71-47.34 13.99-69.29c8.97-21.2 21.8-40.23 38.15-56.58 16.35-16.35 35.38-29.18 56.58-38.15C324.66 600.71 347.97 596 372 596s47.34 4.71 69.29 13.99c21.2 8.97 40.23 21.8 56.58 38.15 16.35 16.35 29.18 35.38 38.15 56.58C545.29 726.66 550 749.97 550 774s-4.71 47.34-13.99 69.28c-8.97 21.2-21.8 40.23-38.15 56.58s-35.38 29.19-56.57 38.15z"/><path fill="none" d="M379 764.27v19.47c3.02-2.18 5-5.72 5-9.73 0-4.02-1.98-7.56-5-9.74zM372 762c-2.45 0-4.73.74-6.63 2h13.26c-1.9-1.26-4.18-2-6.63-2zM372 786c2.45 0 4.73-.74 6.63-2h-13.26c1.9 1.26 4.18 2 6.63 2zM360 774c0 4.01 1.98 7.55 5 9.73v-19.47c-3.02 2.19-5 5.73-5 9.74z"/><g fill="#C33"><path d="M346 763h-46v2h48v-36h-2zM300 783v2h46v34h2v-36h-2zM398 763v-34h-2v36h48v-2zM396 783v36h2v-34h46v-2h-46zM372 762c-2.45 0-4.73.74-6.63 2-3.24 2.15-5.37 5.82-5.37 10s2.14 7.85 5.37 10c1.9 1.26 4.18 2 6.63 2s4.73-.74 6.63-2a11.97 11.97 0 0 0 5.37-10c0-6.63-5.37-12-12-12zm-8 17.97c-1.25-1.67-2-3.73-2-5.97s.75-4.31 2-5.97v11.94zm16 0v-11.95a9.924 9.924 0 0 1 0 11.95z"/></g><circle cx="2028" cy="246" r="180" fill="none"/><path fill="#C33" d="M2028 68c24.03 0 47.34 4.71 69.28 13.99 21.2 8.97 40.23 21.8 56.58 38.15s29.18 35.38 38.15 56.58c9.28 21.94 13.99 45.25 13.99 69.29s-4.71 47.34-13.99 69.29c-8.97 21.2-21.8 40.23-38.15 56.58-16.35 16.35-35.38 29.18-56.58 38.15-21.94 9.28-45.25 13.99-69.28 13.99s-47.34-4.71-69.29-13.99c-21.2-8.97-40.23-21.8-56.58-38.15-16.35-16.35-29.18-35.38-38.15-56.58-9.28-21.94-13.99-45.25-13.99-69.29s4.71-47.34 13.99-69.29c8.97-21.2 21.8-40.23 38.15-56.58 16.35-16.35 35.38-29.18 56.58-38.15C1980.66 72.71 2003.97 68 2028 68m0-2c-99.41 0-180 80.59-180 180s80.59 180 180 180 180-80.59 180-180-80.59-180-180-180z"/><path fill="#C33" d="M2028 236c5.51 0 10 4.49 10 10s-4.49 10-10 10-10-4.49-10-10 4.49-10 10-10m0-2c-6.63 0-12 5.37-12 12s5.37 12 12 12 12-5.37 12-12-5.37-12-12-12z"/><g fill="#C33"><path d="M2002 237v-36h2v36z"/><path d="M1956 235h48v2h-48zM2004 255v36h-2v-36z"/><path d="M1956 255h48v2h-48z"/></g><g fill="#C33"><path d="M2052 237v-36h2v36z"/><path d="M2052 235h48v2h-48zM2054 255v36h-2v-36z"/><path d="M2052 255h48v2h-48z"/></g><path fill="#C33" d="m1995 69-2 1V45h2zM2063 70l-2-1V45h2zM1995 423l-2-1v25h2zM2063 422l-2 1v24h2z"/><path fill="none" d="M2035 236.27v19.47c3.02-2.18 5-5.72 5-9.73 0-4.02-1.98-7.56-5-9.74zM2028 234c-2.45 0-4.73.74-6.63 2h13.26c-1.9-1.26-4.18-2-6.63-2zM2028 258c2.45 0 4.73-.74 6.63-2h-13.26c1.9 1.26 4.18 2 6.63 2zM2016 246c0 4.01 1.98 7.55 5 9.73v-19.47c-3.02 2.19-5 5.73-5 9.74z"/><path fill="#C33" d="M2034.63 236h-13.26c-.13.08-.25 1.18-1.37 1.27v17.47c1.12.09 1.24 1.18 1.37 1.27h13.26c.13-.08.25-1.18 1.37-1.27v-17.47c-1.12-.09-1.24-1.19-1.37-1.27z"/><circle cx="2028" cy="774" r="180" fill="none"/><path fill="#C33" d="M2028 596c24.03 0 47.34 4.71 69.28 13.99 21.2 8.97 40.23 21.8 56.58 38.15s29.18 35.38 38.15 56.58c9.28 21.94 13.99 45.25 13.99 69.29s-4.71 47.34-13.99 69.29c-8.97 21.2-21.8 40.23-38.15 56.58-16.35 16.35-35.38 29.18-56.58 38.15-21.94 9.28-45.25 13.99-69.28 13.99s-47.34-4.71-69.29-13.99c-21.2-8.97-40.23-21.8-56.58-38.15-16.35-16.35-29.18-35.38-38.15-56.58-9.28-21.94-13.99-45.25-13.99-69.29s4.71-47.34 13.99-69.29c8.97-21.2 21.8-40.23 38.15-56.58 16.35-16.35 35.38-29.18 56.58-38.15 21.95-9.28 45.26-13.99 69.29-13.99m0-2c-99.41 0-180 80.59-180 180s80.59 180 180 180 180-80.59 180-180-80.59-180-180-180z"/><path fill="#C33" d="M2028 764c5.51 0 10 4.49 10 10s-4.49 10-10 10-10-4.49-10-10 4.49-10 10-10m0-2c-6.63 0-12 5.37-12 12s5.37 12 12 12 12-5.37 12-12-5.37-12-12-12z"/><g fill="#C33"><path d="M2002 765v-36h2v36z"/><path d="M1956 763h48v2h-48zM2004 783v36h-2v-36z"/><path d="M1956 783h48v2h-48z"/></g><g fill="#C33"><path d="M2052 765v-36h2v36z"/><path d="M2052 763h48v2h-48zM2054 783v36h-2v-36z"/><path d="M2052 783h48v2h-48z"/></g><path fill="#C33" d="m1995 597-2 1v-25h2zM2063 598l-2-1v-24h2zM1995 951l-2-1v25h2zM2063 950l-2 1v24h2z"/><path fill="none" d="M2035 764.27v19.47c3.02-2.18 5-5.72 5-9.73 0-4.02-1.98-7.56-5-9.74zM2028 762c-2.45 0-4.73.74-6.63 2h13.26c-1.9-1.26-4.18-2-6.63-2zM2028 786c2.45 0 4.73-.74 6.63-2h-13.26c1.9 1.26 4.18 2 6.63 2zM2016 774c0 4.01 1.98 7.55 5 9.73v-19.47c-3.02 2.19-5 5.73-5 9.74z"/><path fill="#C33" d="M2034.63 764h-13.26c-.13.08-.25 1.18-1.37 1.27v17.47c1.12.09 1.24 1.18 1.37 1.27h13.26c.13-.08.25-1.18 1.37-1.27v-17.47c-1.12-.09-1.24-1.19-1.37-1.27zM2213.7 462.29c-12.17 12.06-17.7 28.48-17.7 47.71 0 19.38 5.37 35.64 17.7 47.71.19.19.45.29.71.29H2268v392.49c.67-.51 1.34-1.02 2-1.54V642.23l130 35.45v-2.07l-130-35.45V546h20.58c9.62 0 17.42-7.02 17.42-15.68v-40.65c0-8.66-7.8-15.67-17.42-15.67H2270v-94.24l130-35.45v-2.07l-130 35.45V71.04c-.66-.52-1.33-1.02-2-1.54V462h-53.58c-.27 0-.53.11-.72.29zM2270 544v-68h20.58c8.5 0 15.42 6.13 15.42 13.67v40.65c0 7.54-6.92 13.68-15.42 13.68H2270zm-72-34c0-19.29 5.66-34.77 16.82-46h4.18v5h2v-5h47v92h-47v-5h-2v5h-4.18c-11.32-11.24-16.82-26.29-16.82-46zM185.58 462H132V69.51c-.67.51-1.34 1.02-2 1.54V377.7L0 342.24v2.07l130 35.45V474h-20.58C99.8 474 92 481.02 92 489.67v40.65c0 8.66 7.8 15.68 17.42 15.68H130v94.16L0 675.61v2.07l130-35.45v306.73c.66.52 1.33 1.02 2 1.54V558h53.59c.26 0 .52-.1.71-.29C198.63 545.64 204 529.39 204 510c0-19.23-5.54-35.64-17.7-47.71-.19-.18-.45-.29-.72-.29zm-76.16 82c-8.5 0-15.42-6.14-15.42-13.68v-40.65c0-7.54 6.92-13.67 15.42-13.67H130v68h-20.58zm75.76 12H181v-5h-2v5h-47v-92h47v5h2v-5h4.18c11.16 11.24 16.82 26.71 16.82 46 0 19.71-5.5 34.76-16.82 46zM972 774c0-6.63-5.37-12-12-12-2.45 0-4.73.74-6.63 2-3.24 2.15-5.37 5.82-5.37 10s2.14 7.85 5.37 10c1.9 1.26 4.18 2 6.63 2s4.73-.74 6.63-2c3.23-2.15 5.37-5.82 5.37-10zm-2 0c0 2.24-.75 4.31-2 5.97v-11.95c1.25 1.67 2 3.74 2 5.98zm-20 0c0-2.24.75-4.31 2-5.97v11.95c-1.25-1.67-2-3.74-2-5.98zM972 246c0-6.63-5.37-12-12-12-2.45 0-4.73.74-6.63 2-3.24 2.15-5.37 5.82-5.37 10s2.14 7.85 5.37 10c1.9 1.26 4.18 2 6.63 2s4.73-.74 6.63-2c3.23-2.15 5.37-5.82 5.37-10zm-2 0c0 2.24-.75 4.31-2 5.97v-11.95c1.25 1.67 2 3.74 2 5.98zm-20 0c0-2.24.75-4.31 2-5.97v11.95c-1.25-1.67-2-3.74-2-5.98zM1452 774c0-6.63-5.37-12-12-12-2.45 0-4.73.74-6.63 2-3.24 2.15-5.37 5.82-5.37 10s2.14 7.85 5.37 10c1.9 1.26 4.18 2 6.63 2s4.73-.74 6.63-2c3.23-2.15 5.37-5.82 5.37-10zm-2 0c0 2.24-.75 4.31-2 5.97v-11.95c1.25 1.67 2 3.74 2 5.98zm-20 0c0-2.24.75-4.31 2-5.97v11.95c-1.25-1.67-2-3.74-2-5.98zM1452 246c0-6.63-5.37-12-12-12-2.45 0-4.73.74-6.63 2-3.24 2.15-5.37 5.82-5.37 10s2.14 7.85 5.37 10c1.9 1.26 4.18 2 6.63 2s4.73-.74 6.63-2c3.23-2.15 5.37-5.82 5.37-10zm-2 0c0 2.24-.75 4.31-2 5.97v-11.95c1.25 1.67 2 3.74 2 5.98zm-20 0c0-2.24.75-4.31 2-5.97v11.95c-1.25-1.67-2-3.74-2-5.98z"/><circle cx="1200" cy="510" r="6" fill="#36C"/></svg>